<svg width="360" height="307" viewBox="0 0 360 307" fill="none" xmlns="http://www.w3.org/2000/svg">
<path d="M36.6451 79.3203C36.6451 79.3203 -116.401 26.6403 -239.862 70.5403V307.139H579.419V0.247044C497.491 -7.37084 322.255 164.348 36.6451 79.3203Z" fill="#858585"/>
<path d="M189.691 132.462C34.6538 210.096 -165.046 143.553 -239.862 92.2589V307.138H579.419V46.5104C497.491 40.0409 339.312 57.5405 189.691 132.462Z" fill="#C8C8C8"/>
<path d="M201.924 199.326C-27.0767 63.2272 -119.246 154.098 -239.862 166.784V306.328H579.419V63.2272C351.146 52.3591 394.796 151.34 201.924 199.326Z" fill="#E7E7E7"/>
<path d="M168.983 188.274C1.72099 131.132 -174.031 217.958 -241 268.514L-241 306.328H578.85V122.369C510.566 166.895 336.244 245.416 168.983 188.274Z" fill="white"/>
</svg>
